<svg width="18" height="18" viewBox="0 0 18 18" fill="none" xmlns="http://www.w3.org/2000/svg">
<g clip-path="url(#clip0_1_477)">
<path fill-rule="evenodd" clip-rule="evenodd" d="M9.2591 0C9.53025 1.18521e-08 9.75001 0.219787 9.75001 0.490909V17.3554C9.75001 17.6265 9.53025 17.8463 9.2591 17.8463C8.98795 17.8463 8.76819 17.6265 8.76819 17.3554V0.490909C8.76819 0.219787 8.98796 -1.18522e-08 9.2591 0Z" fill="black"/>
<path fill-rule="evenodd" clip-rule="evenodd" d="M17.8335 7.99747C18.037 8.17662 18.0567 8.48684 17.8775 8.69032L10.1893 17.4226C10.0728 17.5546 9.92936 17.6607 9.76893 17.7331C9.6084 17.8055 9.43437 17.843 9.2583 17.843C9.08231 17.843 8.90828 17.8055 8.74775 17.7331C8.58731 17.6607 8.44413 17.5549 8.32762 17.4229L0.640637 8.69032C0.461455 8.48675 0.481255 8.17657 0.684737 7.99743C0.888219 7.81829 1.19839 7.83804 1.37757 8.04155L9.06398 16.7735C9.08836 16.801 9.11823 16.8231 9.15177 16.8383C9.18524 16.8534 9.22156 16.8612 9.2583 16.8612C9.29512 16.8612 9.33144 16.8534 9.36491 16.8383C9.39845 16.8231 9.42832 16.801 9.45262 16.7735L17.1406 8.04152C17.3198 7.83803 17.63 7.8183 17.8335 7.99747Z" fill="black"/>
</g>
<defs>
<clipPath id="clip0_1_477">
<rect width="18" height="18" fill="white"/>
</clipPath>
</defs>
</svg>
