<svg width="1290" height="199" viewBox="0 0 1290 199" fill="none" xmlns="http://www.w3.org/2000/svg">
<path d="M0.700001 188H37.8V82.9L30.6 60.4H39.7L54.6 188H126.2L141.1 60.3H150L143 82.8V188H180.1V51.2H107.4L95 178.9H85.9L73.4 51.2H0.700001V188Z" fill="black"/>
<path d="M195.1 137.2C195.1 171.3 218 190 259.7 190C301.6 190 324.7 171.4 324.7 137.2V51.2H287.6V118.9C287.6 142 288.2 157.3 259.7 157.3C231.2 157.3 232.2 142 232.2 118.9V51.2H195.1V137.2Z" fill="black"/>
<path d="M339.8 188H376.9V82.9L369.7 60.4H378.8L409.2 188H482.1V51.2H444.9V156.3L452.1 178.8H443L412.5 51.2H339.7L339.8 188Z" fill="black"/>
<path d="M494.9 119.5C494.9 159.5 522.8 189.9 567.6 189.9C607 189.9 633.2 168.9 637.2 135H600.1C597 149.7 583.6 157.3 567.9 157.3C547.1 157.3 531.8 145.9 531.8 119.5C531.8 93.3 547.1 81.9 567.9 81.9C583.6 81.9 597 89.3 600.1 104H637.2C633.1 70.2 606.9 49.3 567.6 49.3C522.8 49.3 494.9 79.7 494.9 119.5Z" fill="black"/>
<path d="M744.1 83.8V51.2H644.6V83.8H675.8V155.4H644.6V188H744.1V155.4H712.9V83.8H744.1Z" fill="black"/>
<path d="M758.9 188H796V82.9L788.8 60.4H797.9L812.8 188H884.4L899.3 60.3H908.2L901.2 82.8V188H938.3V51.2H865.5L853.1 178.9H844L831.6 51.2H758.8V188H758.9Z" fill="black"/>
<path d="M1013.7 188H1050.7V142.6H1098.2V188H1135.3V147.5C1135.3 135.5 1128.3 128.5 1116.5 128.5H1095.2V119.6C1112.3 117.9 1133.6 112.8 1133.6 89.5C1133.6 58.8 1102.2 51.3 1069.6 51.3H1013.7V188ZM1050.7 110V83.8H1069.5C1086 83.8 1096.5 83 1096.5 97C1096.5 111 1086 110 1069.5 110H1050.7Z" fill="black"/>
<path d="M1145.7 119.5C1145.7 159.5 1173 189.9 1217.9 189.9C1262.5 189.9 1289.9 159.4 1289.9 119.5C1289.9 79.7 1262.6 49.3 1217.9 49.3C1173 49.3 1145.7 79.7 1145.7 119.5ZM1182.7 119.5C1182.7 95.6 1194.5 81.9 1217.8 81.9C1241.1 81.9 1252.7 95.7 1252.7 119.5C1252.7 143.6 1241.1 157.3 1217.8 157.3C1194.5 157.3 1182.7 143.6 1182.7 119.5Z" fill="black"/>
<path d="M975.7 198.9C990.2 198.9 999.9 188.4 999.9 176C999.9 164 990.2 153.7 975.7 153.7C960.8 153.7 952 164 952 176C952 188.5 960.8 198.9 975.7 198.9Z" fill="#99FF91"/>
<path d="M226.669 0.0102709L86.0488 42.8608L109.34 119.293L249.96 76.4426L226.669 0.0102709Z" fill="#99FF91"/>
<path d="M120.5 94.3L128.9 91.7L119.8 62L116.6 57.2L118.7 56.6L140.6 88.2L157.2 83.1L145.9 46L137.5 48.6L146.6 78.3L149.8 83.1L147.7 83.7L125.8 52.1L109.2 57.2L120.5 94.3Z" fill="black"/>
<path d="M155.8 63.3C159.1 74.1 168.8 80.2 180.6 76.6C192.3 73 197 62.6 193.7 51.7C190.4 40.9 180.7 34.8 169 38.4C157.1 42.1 152.5 52.5 155.8 63.3ZM164.2 60.7C162 53.6 164.2 47.9 171.2 45.8C178.2 43.7 183.1 47.2 185.2 54.3C187.4 61.5 185.3 67.1 178.3 69.2C171.3 71.4 166.4 67.9 164.2 60.7Z" fill="black"/>
<path d="M217.6 32.3L215.4 24.9L190.1 32.6L192.3 40L200.7 37.4L207.5 59.8L199.1 62.4L201.3 69.8L226.6 62.1L224.4 54.7L216 57.3L209.2 34.9L217.6 32.3Z" fill="black"/>
</svg>
